<?xml version="1.0" encoding="UTF-8"?>
<svg xmlns="http://www.w3.org/2000/svg" version="1.1" viewBox="0 0 512 512">
  <defs>
    <style>
      .cls-1 {
        fill: #fff;
      }

      .cls-2 {
        fill: none;
        stroke: blue;
      }

      .cls-2, .cls-3 {
        stroke-miterlimit: 10;
      }

      .cls-3 {
        stroke: #000;
      }

      .cls-4 {
        display: none;
      }

      .cls-5 {
        opacity: .5;
      }
    </style>
  </defs>
  <!-- Generator: Adobe Illustrator 28.7.1, SVG Export Plug-In . SVG Version: 1.2.0 Build 142)  -->
  <g>
    <g id="_Слой_2" data-name="Слой_2" class="cls-4">
      <rect class="cls-3" x="-.5" y=".5" width="512" height="513"/>
    </g>
    <g id="_Слой_1" data-name="Слой_1">
      <rect class="cls-1" x="85.05" y="231.26" width="338.18" height="29.5" rx="12.5" ry="12.5" transform="translate(-99.52 251.76) rotate(-45)"/>
      <path class="cls-1" d="M281.5,146c-6.88,0-12.5-5.63-12.5-12.5s5.62-12.5,12.5-12.5h85.5c6.88,0,12.5,5.63,12.5,12.5h0c0,6.88-5.63,12.5-12.5,12.5h-85.5Z"/>
      <g class="cls-5">
        <path class="cls-1" d="M142.5,146c-6.88,0-12.5-5.63-12.5-12.5h0c0-6.88,5.62-12.5,12.5-12.5h100c6.88,0,12.5,5.63,12.5,12.5h0c0,6.88-5.63,12.5-12.5,12.5h-100Z"/>
      </g>
      <path class="cls-1" d="M379.5,219.5c0,6.87-5.63,12.5-12.5,12.5s-12.5-5.63-12.5-12.5v-85.37c0-6.87,5.63-12.5,12.5-12.5h0c6.88,0,12.5,5.63,12.5,12.5v85.37Z"/>
      <g class="cls-5">
        <path class="cls-1" d="M379.5,358.5c0,6.88-5.63,12.5-12.5,12.5h0c-6.88,0-12.5-5.63-12.5-12.5v-100c0-6.88,5.63-12.5,12.5-12.5h0c6.88,0,12.5,5.63,12.5,12.5v100Z"/>
      </g>
      <g class="cls-4">
        <rect class="cls-2" x="130" y="121" width="250" height="250"/>
        <line class="cls-2" x1="130" y1="329.33" x2="380" y2="329.33"/>
        <line class="cls-2" x1="130" y1="287.67" x2="380" y2="287.67"/>
        <line class="cls-2" x1="130" y1="246" x2="380" y2="246"/>
        <line class="cls-2" x1="130" y1="204.33" x2="380" y2="204.33"/>
        <line class="cls-2" x1="130" y1="162.67" x2="380" y2="162.67"/>
        <line class="cls-2" x1="338.33" y1="121" x2="338.33" y2="371"/>
        <line class="cls-2" x1="296.67" y1="121" x2="296.67" y2="371"/>
        <line class="cls-2" x1="255" y1="121" x2="255" y2="371"/>
        <line class="cls-2" x1="213.33" y1="121" x2="213.33" y2="371"/>
        <line class="cls-2" x1="171.67" y1="121" x2="171.67" y2="371"/>
      </g>
    </g>
  </g>
</svg>